<svg xmlns="http://www.w3.org/2000/svg" version="1.1" xmlns:xlink="http://www.w3.org/1999/xlink" xmlns:svgjs="http://svgjs.dev/svgjs" width="2000" height="1186" viewBox="0 0 2000 1186"><g transform="matrix(1,0,0,1,-1.2121212121212466,-0.9488587538902493)"><svg viewBox="0 0 396 235" data-background-color="#1f0f53" preserveAspectRatio="xMidYMid meet" height="1186" width="2000" xmlns="http://www.w3.org/2000/svg" xmlns:xlink="http://www.w3.org/1999/xlink"><g id="tight-bounds" transform="matrix(1,0,0,1,0.2400000000000091,0.18801164179106422)"><svg viewBox="0 0 395.52 234.62397671641787" height="234.62397671641787" width="395.52"><g><svg viewBox="0 0 395.52 234.62397671641787" height="234.62397671641787" width="395.52"><g><svg viewBox="0 0 395.52 234.62397671641787" height="234.62397671641787" width="395.52"><g><svg viewBox="0 0 395.52 234.62397671641787" height="234.62397671641787" width="395.52"><g id="textblocktransform"><svg viewBox="0 0 395.52 234.62397671641787" height="234.62397671641787" width="395.52" id="textblock"><g><svg viewBox="0 0 395.52 234.62397671641787" height="234.62397671641787" width="395.52"><rect width="395.52" height="234.62397671641787" x="0" y="0" opacity="1" fill="#33bbcf" data-fill-palette-color="tertiary"></rect><g transform="matrix(1,0,0,1,23.607599999999998,23.607599999999998)"><svg width="348.3048" viewBox="2.05 -35.55 67 36.05" height="187.4087767164179" data-palette-color="#1f0f53"><path d="M25.05-15.45L25.05-15.45 25.05-19.15Q25.05-28.3 24.15-30.7L24.15-30.7Q23.15-33.45 21.3-34.1L21.3-34.1Q20.25-34.5 18.75-34.5 17.25-34.5 16.18-34.1 15.1-33.7 14.4-32.7 13.7-31.7 13.28-30.6 12.85-29.5 12.6-27.5L12.6-27.5Q12.3-24.6 12.3-18.95L12.3-18.95 12.3-15.35Q12.3-9.25 12.78-6.68 13.25-4.1 13.95-3L13.95-3Q15.5-0.55 18.75-0.55L18.75-0.55Q22.7-0.55 23.88-3.88 25.05-7.2 25.05-15.45ZM18.65 0.5Q10.3 0.5 6.18-4.03 2.05-8.55 2.05-17.13 2.05-25.7 6.48-30.63 10.9-35.55 19-35.55 27.1-35.55 31.23-30.88 35.35-26.2 35.35-17.6 35.35-9 31.18-4.25 27 0.5 18.65 0.5ZM52.7-0.95L56.25-0.95 52.6-11.75 42.7-11.75 38.85-0.95 42.6-0.95 42.6 0 34.95 0 34.95-0.95 37.3-0.95 50.05-35.3 54.15-35.3 66.75-0.95 69.05-0.95 69.05 0 52.7 0 52.7-0.95ZM52.2-12.85L47.85-25.95 43.15-12.85 52.2-12.85Z" opacity="1" transform="matrix(1,0,0,1,0,0)" fill="#1f0f53" class="wordmark-text-0" data-fill-palette-color="quaternary" id="text-0"></path></svg></g></svg></g></svg></g></svg></g><g></g></svg></g></svg></g><defs></defs></svg><rect width="395.52" height="234.62397671641787" fill="none" stroke="none" visibility="hidden"></rect></g></svg></g></svg>